<svg width="85" height="78" viewBox="0 0 85 78" fill="none" xmlns="http://www.w3.org/2000/svg">
<path d="M29.9034 66.4572C35.8686 70.5028 41.9471 74.705 49.4368 75.769C56.0583 76.7795 62.4624 74.3858 67.4381 70.3189C68.7856 69.2697 70.0564 68.1209 71.2441 66.8963C81.9397 55.8676 85.9359 38.7124 80.7327 24.2825C80.3049 23.2645 79.8033 22.2673 79.2213 21.295C78.6393 20.3226 77.9769 19.3755 77.2285 18.4586C74.0207 14.5597 69.9143 11.9187 65.4367 10.1162C63.944 9.51552 62.4104 9.00802 60.855 8.57834C58.7444 8.14072 56.6176 7.70855 54.4792 7.30613C47.8086 6.03144 41.0247 5.12746 34.1979 5.03726C32.5768 4.96342 30.9137 4.99811 29.2506 5.15224C24.2603 5.61414 19.2655 7.15001 15.3846 10.0572C14.0906 11.0261 12.921 12.1477 11.9158 13.4323C10.6764 15.147 9.78141 16.8881 9.1721 18.6495C6.5073 26.6177 8.8955 34.9161 11.2832 42.7887C12.5858 46.9379 14.4309 50.8611 16.7792 54.4458C17.5629 55.6392 18.4023 56.7939 19.2988 57.8946C21.1065 60.0763 23.1145 62.0979 25.3677 63.7774C26.7683 64.6775 28.2808 65.5676 29.9034 66.4567V66.4572Z" fill="url(#paint0_linear_7_75)"/>
<path opacity="0.2" d="M11.8491 22.998C10.5968 24.4946 9.3909 26.0942 8.25952 27.7752C0.338893 39.5421 -3.93927 55.2951 4.98378 67.4918C6.11011 68.9382 7.40369 70.2578 8.82974 71.4296C10.2553 72.6013 11.8128 73.6252 13.4661 74.4805C33.2561 83.827 55.9218 73.0361 71.0312 59.9062C71.9918 58.9666 72.9207 57.9689 73.8092 56.91C76.9948 53.0733 79.2001 48.9369 80.7315 44.3208C82.8753 37.7867 83.4269 31.432 84.8358 24.538C85.1421 23.2193 84.9583 22.0199 84.7809 20.7323C84.6112 19.4723 84.3039 18.235 83.8576 17.042C82.5177 13.4632 79.9109 10.2737 76.4347 8.28958C74.8414 7.43923 73.176 7.08479 71.4739 7.0138C69.7723 6.94282 68.034 7.15528 66.2931 7.42986C53.9009 9.73049 41.5882 11.4692 28.9688 12.6084C23.8842 13.088 19.535 15.8456 15.8633 19.0942C14.3844 20.3582 13.0339 21.6813 11.8501 22.998H11.8491Z" fill="url(#paint1_linear_7_75)"/>
<path opacity="0.2" d="M14.0842 27.6421C13.469 29.3749 12.9263 31.1884 12.4741 33.052C10.498 41.2056 10.2624 50.3219 13.2963 57.9087C13.9035 59.4255 14.6411 60.881 15.5226 62.2519C22.2384 72.0343 34.8296 75.7889 46.2316 74.8642C54.3913 74.2113 61.4161 69.5862 67.2956 64.1728C68.2774 63.2369 69.2184 62.2564 70.1095 61.2334C72.7829 58.1642 75.0067 54.7107 76.5468 50.8131C80.0595 41.8347 79.1946 32.0948 77.6801 22.8477C77.4672 21.7334 77.2059 20.6287 76.8957 19.5357C75.6552 15.1651 73.6272 10.9922 70.7273 7.21939C67.6606 3.22498 63.3167 1.29495 58.6365 0.489379C55.1263 -0.114421 51.4274 -0.0860309 47.9368 0.181142C46.7733 0.270368 45.633 0.38545 44.5304 0.513206C43.0341 0.808262 41.577 1.21384 40.1623 1.71776C38.7481 2.2222 37.3761 2.82549 36.0495 3.51547C27.8581 7.60823 20.8332 14.3012 16.4606 22.3996C15.5196 24.1577 14.7206 25.9194 14.0837 27.6426L14.0842 27.6421Z" fill="url(#paint2_linear_7_75)"/>
<path d="M43.1516 40.2616V36.7082C43.1516 36.0199 43.1516 35.6757 43.3739 35.5526C43.5961 35.4294 43.888 35.6118 44.4716 35.9765L47.3144 37.7533C47.8397 38.0816 48.1024 38.2458 48.1024 38.4849C48.1024 38.724 47.8397 38.8881 47.3144 39.2165L44.4716 40.9932C43.888 41.358 43.5961 41.5404 43.3739 41.4172C43.1516 41.294 43.1516 40.9499 43.1516 40.2616Z" fill="#6C018B"/>
<path fill-rule="evenodd" clip-rule="evenodd" d="M44.8181 52.0852C52.2959 52.0852 58.3578 46.0233 58.3578 38.5455C58.3578 31.0677 52.2959 25.0058 44.8181 25.0058C37.3403 25.0058 31.2784 31.0677 31.2784 38.5455C31.2784 46.0233 37.3403 52.0852 44.8181 52.0852ZM44.8181 53.0919C52.8519 53.0919 59.3645 46.5792 59.3645 38.5455C59.3645 30.5117 52.8519 23.9991 44.8181 23.9991C36.7844 23.9991 30.2717 30.5117 30.2717 38.5455C30.2717 46.5792 36.7844 53.0919 44.8181 53.0919Z" fill="url(#paint3_linear_7_75)" fill-opacity="0.4"/>
<path fill-rule="evenodd" clip-rule="evenodd" d="M44.8181 54.5305C53.6464 54.5305 60.8032 47.3738 60.8032 38.5454C60.8032 29.7171 53.6464 22.5604 44.8181 22.5604C35.9898 22.5604 28.833 29.7171 28.833 38.5454C28.833 47.3738 35.9898 54.5305 44.8181 54.5305ZM44.8181 55.5454C54.207 55.5454 61.8181 47.9343 61.8181 38.5454C61.8181 29.1566 54.207 21.5454 44.8181 21.5454C35.4293 21.5454 27.8181 29.1566 27.8181 38.5454C27.8181 47.9343 35.4293 55.5454 44.8181 55.5454Z" fill="url(#paint4_linear_7_75)" fill-opacity="0.2"/>
<path fill-rule="evenodd" clip-rule="evenodd" d="M44.8181 49.973C51.1293 49.973 56.2456 44.8567 56.2456 38.5454C56.2456 32.2342 51.1293 27.1179 44.8181 27.1179C38.5068 27.1179 33.3905 32.2342 33.3905 38.5454C33.3905 44.8567 38.5068 49.973 44.8181 49.973ZM44.8181 50.9887C51.6903 50.9887 57.2614 45.4177 57.2614 38.5454C57.2614 31.6732 51.6903 26.1021 44.8181 26.1021C37.9458 26.1021 32.3748 31.6732 32.3748 38.5454C32.3748 45.4177 37.9458 50.9887 44.8181 50.9887Z" fill="url(#paint5_linear_7_75)" fill-opacity="0.6"/>
<path fill-rule="evenodd" clip-rule="evenodd" d="M44.8183 47.5311C49.781 47.5311 53.804 43.5081 53.804 38.5454C53.804 33.5827 49.781 29.5597 44.8183 29.5597C39.8556 29.5597 35.8326 33.5827 35.8326 38.5454C35.8326 43.5081 39.8556 47.5311 44.8183 47.5311ZM44.8183 48.5351C50.3355 48.5351 54.808 44.0626 54.808 38.5454C54.808 33.0283 50.3355 28.5557 44.8183 28.5557C39.3012 28.5557 34.8286 33.0283 34.8286 38.5454C34.8286 44.0626 39.3012 48.5351 44.8183 48.5351Z" fill="url(#paint6_linear_7_75)" fill-opacity="0.8"/>
<path fill-rule="evenodd" clip-rule="evenodd" d="M44.8182 45.4144C48.6119 45.4144 51.6872 42.3391 51.6872 38.5454C51.6872 34.7518 48.6119 31.6765 44.8182 31.6765C41.0246 31.6765 37.9493 34.7518 37.9493 38.5454C37.9493 42.3391 41.0246 45.4144 44.8182 45.4144ZM44.8182 46.432C49.1739 46.432 52.7048 42.9011 52.7048 38.5454C52.7048 34.1898 49.1739 30.6588 44.8182 30.6588C40.4626 30.6588 36.9316 34.1898 36.9316 38.5454C36.9316 42.9011 40.4626 46.432 44.8182 46.432Z" fill="url(#paint7_linear_7_75)"/>
<path d="M24.1205 62.4367V68H23.2241L20.6027 64.2106H20.5565V68H19.5487V62.4367H20.4506L23.0692 66.2289H23.1181V62.4367H24.1205ZM25.2186 68V62.4367H28.8369V63.2816H26.2264V64.7919H28.6495V65.6367H26.2264V67.1552H28.8586V68H25.2186ZM33.372 62.4367H34.3798V66.0713C34.3798 66.4697 34.2856 66.8202 34.0973 67.1226C33.9107 67.425 33.6482 67.6614 33.3095 67.8316C32.9709 68 32.5752 68.0842 32.1224 68.0842C31.6679 68.0842 31.2713 68 30.9326 67.8316C30.594 67.6614 30.3314 67.425 30.1449 67.1226C29.9583 66.8202 29.8651 66.4697 29.8651 66.0713V62.4367H30.8729V65.9871C30.8729 66.2189 30.9236 66.4254 31.025 66.6065C31.1282 66.7876 31.2731 66.9297 31.4596 67.0329C31.6461 67.1344 31.8671 67.1851 32.1224 67.1851C32.3778 67.1851 32.5987 67.1344 32.7852 67.0329C32.9736 66.9297 33.1185 66.7876 33.2199 66.6065C33.3213 66.4254 33.372 66.2189 33.372 65.9871V62.4367ZM35.4752 68V62.4367H37.5614C37.9888 62.4367 38.3474 62.511 38.6371 62.6595C38.9287 62.808 39.1487 63.0162 39.2972 63.2843C39.4475 63.5505 39.5227 63.8611 39.5227 64.216C39.5227 64.5728 39.4466 64.8824 39.2945 65.145C39.1442 65.4058 38.9223 65.6077 38.629 65.7508C38.3356 65.892 37.9752 65.9627 37.5478 65.9627H36.0619V65.126H37.412C37.6619 65.126 37.8666 65.0916 38.0259 65.0228C38.1853 64.9522 38.303 64.8498 38.3791 64.7158C38.4569 64.58 38.4959 64.4134 38.4959 64.216C38.4959 64.0186 38.4569 63.8502 38.3791 63.7107C38.3012 63.5695 38.1826 63.4626 38.0232 63.3902C37.8638 63.316 37.6583 63.2788 37.4066 63.2788H36.483V68H35.4752ZM38.3492 65.4791L39.7264 68H38.6018L37.249 65.4791H38.3492ZM45.4214 65.2184C45.4214 65.8178 45.3091 66.3312 45.0846 66.7586C44.8618 67.1842 44.5576 67.5101 44.1719 67.7365C43.7879 67.9629 43.3524 68.0761 42.8653 68.0761C42.3781 68.0761 41.9417 67.9629 41.5559 67.7365C41.172 67.5083 40.8678 67.1814 40.6432 66.7559C40.4205 66.3285 40.3091 65.816 40.3091 65.2184C40.3091 64.6189 40.4205 64.1064 40.6432 63.6809C40.8678 63.2535 41.172 62.9266 41.5559 62.7002C41.9417 62.4739 42.3781 62.3607 42.8653 62.3607C43.3524 62.3607 43.7879 62.4739 44.1719 62.7002C44.5576 62.9266 44.8618 63.2535 45.0846 63.6809C45.3091 64.1064 45.4214 64.6189 45.4214 65.2184ZM44.4082 65.2184C44.4082 64.7964 44.3421 64.4406 44.2099 64.1508C44.0795 63.8592 43.8984 63.6392 43.6666 63.4907C43.4348 63.3404 43.1677 63.2653 42.8653 63.2653C42.5628 63.2653 42.2957 63.3404 42.0639 63.4907C41.8321 63.6392 41.6501 63.8592 41.5179 64.1508C41.3875 64.4406 41.3223 64.7964 41.3223 65.2184C41.3223 65.6403 41.3875 65.9971 41.5179 66.2886C41.6501 66.5784 41.8321 66.7984 42.0639 66.9487C42.2957 67.0972 42.5628 67.1715 42.8653 67.1715C43.1677 67.1715 43.4348 67.0972 43.6666 66.9487C43.8984 66.7984 44.0795 66.5784 44.2099 66.2886C44.3421 65.9971 44.4082 65.6403 44.4082 65.2184ZM46.2275 62.8931V62.4367H50.2614V62.8931H48.4985V68H47.9905V62.8931H46.2275ZM55.113 62.4367H55.621V66.1202C55.621 66.4987 55.5322 66.8374 55.3547 67.1362C55.1773 67.4332 54.9301 67.6677 54.6132 67.8397C54.2981 68.01 53.9313 68.0951 53.513 68.0951C53.0965 68.0951 52.7298 68.0091 52.4128 67.837C52.0959 67.665 51.8487 67.4305 51.6713 67.1335C51.4938 66.8365 51.405 66.4987 51.405 66.1202V62.4367H51.913V66.0849C51.913 66.3801 51.9791 66.6436 52.1113 66.8754C52.2435 67.1054 52.4291 67.2865 52.6682 67.4187C52.909 67.5509 53.1907 67.617 53.513 67.617C53.8354 67.617 54.117 67.5509 54.3578 67.4187C54.5987 67.2865 54.7843 67.1054 54.9147 66.8754C55.0469 66.6436 55.113 66.3801 55.113 66.0849V62.4367ZM61.4301 62.4367V68H60.9357L57.6488 63.3413H57.6053V68H57.0973V62.4367H57.589L60.8868 67.1009H60.9302V62.4367H61.4301ZM62.9092 68V62.4367H66.1363V62.8931H63.4171V64.9875H65.9651V65.4438H63.4171V67.5436H66.1906V68H62.9092ZM67.451 68V62.4367H69.2466C69.6414 62.4367 69.971 62.5083 70.2354 62.6513C70.5016 62.7926 70.7017 62.9891 70.8357 63.2408C70.9715 63.4907 71.0394 63.7778 71.0394 64.1019C71.0394 64.4261 70.9715 64.7122 70.8357 64.9603C70.7017 65.2084 70.5025 65.4022 70.2381 65.5416C69.9737 65.6811 69.6459 65.7508 69.2547 65.7508H67.7254V65.2863H69.2412C69.5309 65.2863 69.7718 65.2383 69.9637 65.1423C70.1575 65.0463 70.3015 64.9096 70.3956 64.7321C70.4916 64.5547 70.5396 64.3446 70.5396 64.1019C70.5396 63.8592 70.4916 63.6474 70.3956 63.4663C70.2997 63.2834 70.1548 63.1421 69.961 63.0425C69.7691 62.9429 69.5264 62.8931 69.233 62.8931H67.959V68H67.451ZM69.904 65.49L71.2731 68H70.6863L69.3308 65.49H69.904Z" fill="#6C018B"/>
<path d="M65.2668 33.837H64.6908C64.3371 33.837 64.0076 33.945 63.7331 34.13C63.683 33.2341 62.9638 32.5164 62.0741 32.4804C61.6494 28.5597 59.9329 24.9282 57.1347 22.099C53.8831 18.8109 49.5589 17 44.9598 17C40.3608 17 36.0366 18.8109 32.7846 22.099C29.9853 24.9294 28.2684 28.563 27.8449 32.4856C26.9922 32.5598 26.3141 33.2613 26.2658 34.13C26.0687 33.9972 25.8433 33.9042 25.6008 33.8623L24.8234 33.837H24.7321C23.777 33.837 23 34.6226 23 35.5883V42.3799C23 43.3456 23.777 44.1313 24.7321 44.1313H25.3081C25.6619 44.1313 25.9913 44.0232 26.2658 43.8383C26.317 44.7577 27.0729 45.4896 27.9947 45.4896C28.9164 45.4896 29.7268 44.704 29.7268 43.7383V34.23C29.7268 33.9487 29.6606 33.6829 29.5436 33.4469C29.7712 29.6376 31.347 26.0881 34.0386 23.3666C36.9557 20.4171 40.8345 18.7926 44.9602 18.7926C49.0859 18.7926 52.9643 20.4171 55.8817 23.3666C58.6116 26.1267 60.1936 29.7379 60.3855 33.6087C60.3128 33.8017 60.2728 34.0112 60.2728 34.2296V43.7379C60.2728 44.1879 60.4415 44.5985 60.7186 44.9092C60.0198 47.0116 58.6661 48.9391 56.742 50.5221C54.4481 52.4095 51.5594 53.6293 48.4238 54.0649C48.2511 52.7892 47.1672 51.8033 45.859 51.8033H43.5196C42.0918 51.8033 40.9301 52.9778 40.9301 54.4215V55.3818C40.9301 56.8254 42.0918 58 43.5196 58H45.859C47.2341 58 48.3605 56.9104 48.4423 55.5406C52.0462 55.0902 55.3705 53.7138 57.996 51.5537C60.0947 49.8269 61.5847 47.7329 62.3777 45.4481C63.123 45.2823 63.6899 44.6298 63.7342 43.8379C63.9313 43.9706 64.1567 44.0636 64.3992 44.1055L65.1766 44.1309H65.2678C66.223 44.1309 67 43.3453 67 42.3795V35.588C67 34.6222 66.223 33.8366 65.2678 33.8366L65.2668 33.837Z" fill="#6C018B"/>
<defs>
<linearGradient id="paint0_linear_7_75" x1="77.7797" y1="19.489" x2="15.5691" y2="56.5718" gradientUnits="userSpaceOnUse">
<stop stop-color="#FF9CB8"/>
<stop offset="1" stop-color="#E5CAFF"/>
</linearGradient>
<linearGradient id="paint1_linear_7_75" x1="67.8662" y1="65.6358" x2="12.967" y2="6.27216" gradientUnits="userSpaceOnUse">
<stop stop-color="#E6255C"/>
<stop offset="1" stop-color="#FBB03B"/>
</linearGradient>
<linearGradient id="paint2_linear_7_75" x1="77.657" y1="19.2275" x2="10.5398" y2="58.1685" gradientUnits="userSpaceOnUse">
<stop stop-color="#DD59D9"/>
<stop offset="1" stop-color="#3F21F3"/>
</linearGradient>
<linearGradient id="paint3_linear_7_75" x1="55.2313" y1="26.7928" x2="33.4599" y2="53.0919" gradientUnits="userSpaceOnUse">
<stop stop-color="#A539F6"/>
<stop offset="1" stop-color="#E133F2"/>
</linearGradient>
<linearGradient id="paint4_linear_7_75" x1="56.9877" y1="24.8103" x2="31.544" y2="55.5454" gradientUnits="userSpaceOnUse">
<stop stop-color="#A539F6"/>
<stop offset="1" stop-color="#E133F2"/>
</linearGradient>
<linearGradient id="paint5_linear_7_75" x1="53.7257" y1="28.4919" x2="35.102" y2="50.9887" gradientUnits="userSpaceOnUse">
<stop stop-color="#A539F6"/>
<stop offset="1" stop-color="#E133F2"/>
</linearGradient>
<linearGradient id="paint6_linear_7_75" x1="51.9695" y1="30.4743" x2="37.0181" y2="48.5351" gradientUnits="userSpaceOnUse">
<stop stop-color="#A539F6"/>
<stop offset="1" stop-color="#E133F2"/>
</linearGradient>
<linearGradient id="paint7_linear_7_75" x1="50.4639" y1="32.1735" x2="38.6602" y2="46.432" gradientUnits="userSpaceOnUse">
<stop stop-color="#A539F6"/>
<stop offset="1" stop-color="#E133F2"/>
</linearGradient>
</defs>
</svg>
